<svg width="74" height="86" viewBox="0 0 74 86" fill="none" xmlns="http://www.w3.org/2000/svg">
<path fill-rule="evenodd" clip-rule="evenodd" d="M0 3V83C0 84.6569 1.34315 86 3 86H71C72.6569 86 74 84.6569 74 83V18C74 16.3431 72.6569 15 71 15H69.5C67.8431 15 66.5 16.3431 66.5 18V76C66.5 77.6569 65.1569 79 63.5 79H56C54.3431 79 53 77.6569 53 76V50C53 48.3431 51.6569 47 50 47H36.5C34.8431 47 33.5 48.3431 33.5 50C33.5 51.6569 34.8431 53 36.5 53H44C45.6569 53 47 54.3431 47 56V76C47 77.6569 45.6569 79 44 79H33C31.3431 79 30 77.6569 30 76V40C30 38.3431 28.6569 37 27 37H11.5C9.84315 37 8.5 38.3431 8.5 40V58C8.5 59.6569 9.84315 61 11.5 61H20.5C22.1569 61 23.5 62.3431 23.5 64V75.5C23.5 77.1569 22.1569 78.5 20.5 78.5H9.5C7.84315 78.5 6.5 77.1569 6.5 75.5V10C6.5 8.34315 7.84315 7 9.5 7H36C37.6569 7 39 8.34315 39 10V17.5C39 19.1569 37.6569 20.5 36 20.5H14.5C12.8431 20.5 11.5 21.8431 11.5 23.5V24.5C11.5 26.1569 12.8431 27.5 14.5 27.5H43C44.6569 27.5 46 26.1569 46 24.5V10C46 8.34315 47.3431 7 49 7H50.5C52.1569 7 53.5 8.34315 53.5 10V38C53.5 39.6569 54.8431 41 56.5 41H58C59.6569 41 61 39.6569 61 38V10C61 8.34315 62.3431 7 64 7H67C68.6569 7 70 5.65685 70 4V3C70 1.34315 68.6569 0 67 0H3C1.34315 0 0 1.34315 0 3ZM14 43V54.5H24V43H14Z" fill="white"/>
</svg>
